<svg width="21" height="24" viewBox="0 0 21 24" fill="none" xmlns="http://www.w3.org/2000/svg">
<path d="M13.0349 5.73642C13.1193 5.22503 13.3149 4.73838 13.6079 4.31083C13.9009 3.88329 14.2842 3.52526 14.7307 3.26202C15.1772 2.99878 15.676 2.83674 16.1919 2.78734C16.7079 2.73794 17.2284 2.80238 17.7167 2.97612L18.4742 3.24587C18.6463 3.30979 18.8294 3.33889 19.0128 3.33147C19.1962 3.32405 19.3763 3.28026 19.5427 3.20264C19.709 3.12503 19.8583 3.01513 19.9818 2.87934C20.1054 2.74354 20.2007 2.58456 20.2622 2.41162C20.3238 2.23868 20.3504 2.05524 20.3404 1.87194C20.3305 1.68864 20.2843 1.50914 20.2044 1.34386C20.1245 1.17859 20.0126 1.03084 19.8751 0.909186C19.7376 0.787535 19.5773 0.694411 19.4036 0.635222L18.6461 0.365474C17.7757 0.0557207 16.8481 -0.0592582 15.9284 0.0286502C15.0088 0.116559 14.1197 0.405212 13.3239 0.874242C12.528 1.34327 11.8448 1.98125 11.3224 2.74316C10.8 3.50506 10.4511 4.37233 10.3005 5.28376L9.42104 10.6233H4.61915C4.25164 10.6233 3.89919 10.7693 3.63932 11.0292C3.37945 11.289 3.23346 11.6415 3.23346 12.009C3.23346 12.3765 3.37945 12.729 3.63932 12.9888C3.89919 13.2487 4.25164 13.3947 4.61915 13.3947H8.96469L8.16283 18.2576C8.06738 18.836 7.82985 19.3816 7.47155 19.8456C7.11325 20.3096 6.64539 20.6774 6.10992 20.916C5.57445 21.1546 4.98813 21.2566 4.40355 21.2128C3.81896 21.169 3.25439 20.9807 2.76047 20.665L2.13229 20.2622C1.97895 20.1642 1.8078 20.0973 1.62862 20.0654C1.44944 20.0335 1.26574 20.0373 1.088 20.0764C0.910256 20.1155 0.74196 20.1892 0.592718 20.2934C0.443476 20.3976 0.31621 20.5301 0.218188 20.6834C0.120166 20.8368 0.0533064 21.0079 0.021427 21.1871C-0.0104523 21.3663 -0.00672699 21.55 0.0323898 21.7277C0.0715065 21.9055 0.145249 22.0738 0.249407 22.223C0.353564 22.3723 0.486097 22.4995 0.639439 22.5975L1.26762 22.9985C5.08659 25.4428 10.1619 23.1832 10.8991 18.7084L11.773 13.3928H15.7047C16.0722 13.3928 16.4247 13.2469 16.6845 12.987C16.9444 12.7271 17.0904 12.3747 17.0904 12.0071C17.0904 11.6396 16.9444 11.2872 16.6845 11.0273C16.4247 10.7674 16.0722 10.6215 15.7047 10.6215H12.2312L13.0349 5.73457V5.73642Z" fill="#000000"/>
</svg>
